<?xml version="1.0" encoding="UTF-8"?>
<svg version="1.1" xmlns="http://www.w3.org/2000/svg" width="512" height="512">
<path d="M0 0 C0.99422974 0.00215515 1.98845947 0.0043103 3.01281738 0.00653076 C17.48109955 0.05686686 31.66189071 0.35398296 45.875 3.3125 C46.85130371 3.51117676 47.82760742 3.70985352 48.83349609 3.91455078 C97.21339984 14.03634541 141.2005519 35.95291013 176.875 70.3125 C177.8640332 71.26068604 177.8640332 71.26068604 178.87304688 72.22802734 C188.36130305 81.37247479 197.1012044 90.66984009 204.875 101.3125 C205.73306152 102.46355017 206.59113451 103.61459177 207.44921875 104.765625 C213.48736829 112.95680614 218.84595521 121.47054105 223.875 130.3125 C224.23948242 130.94430176 224.60396484 131.57610352 224.97949219 132.22705078 C246.4740329 169.78084014 256.35126533 212.44304389 256.1875 255.4375 C256.18476578 256.9278476 256.18476578 256.9278476 256.18197632 258.44830322 C256.13719978 272.942192 255.67610213 287.05386097 252.875 301.3125 C252.71402832 302.20807617 252.55305664 303.10365234 252.38720703 304.02636719 C244.49797508 347.63313051 224.80850867 388.77106217 195.875 422.3125 C195.24078125 423.05757813 194.6065625 423.80265625 193.953125 424.5703125 C182.14198485 438.07529833 169.39139772 450.74668743 154.875 461.3125 C153.72505169 462.16899066 152.57531411 463.02576433 151.42578125 463.8828125 C143.23410474 469.9234414 134.71854922 475.28255071 125.875 480.3125 C125.24319824 480.67698242 124.61139648 481.04146484 123.96044922 481.41699219 C97.93166464 496.31500327 68.51361377 505.96041257 38.875 510.3125 C37.67254639 510.48910156 36.47009277 510.66570312 35.23120117 510.84765625 C23.51493596 512.45161689 11.87584274 512.71324553 0.0625 512.6875 C-0.92433777 512.68662384 -1.91117554 512.68574768 -2.92791748 512.68484497 C-67.88219852 512.49532667 -130.29571624 487.41579016 -177.125 442.3125 C-177.78435547 441.68037598 -178.44371094 441.04825195 -179.12304688 440.39697266 C-188.61130305 431.25252521 -197.3512044 421.95515991 -205.125 411.3125 C-205.98306152 410.16144983 -206.84113451 409.01040823 -207.69921875 407.859375 C-213.73736829 399.66819386 -219.09595521 391.15445895 -224.125 382.3125 C-224.48948242 381.68069824 -224.85396484 381.04889648 -225.22949219 380.39794922 C-240.15973018 354.31285999 -249.63885054 324.97664886 -254.125 295.3125 C-254.38990234 293.62882324 -254.38990234 293.62882324 -254.66015625 291.91113281 C-256.3170586 280.29802257 -256.52373513 268.78070055 -256.5 257.0625 C-256.49945618 256.05048523 -256.49891235 255.03847046 -256.49835205 253.99578857 C-256.4576051 237.46132605 -255.53386907 221.54185136 -252.125 205.3125 C-251.91601074 204.29720215 -251.70702148 203.2819043 -251.49169922 202.23583984 C-242.71380189 160.92383315 -223.71113066 122.2919774 -196.125 90.3125 C-195.49078125 89.56742187 -194.8565625 88.82234375 -194.203125 88.0546875 C-182.39198485 74.54970167 -169.64139772 61.87831257 -155.125 51.3125 C-153.97505169 50.45600934 -152.82531411 49.59923567 -151.67578125 48.7421875 C-143.48410474 42.7015586 -134.96854922 37.34244929 -126.125 32.3125 C-125.49319824 31.94801758 -124.86139648 31.58353516 -124.21044922 31.20800781 C-98.17975097 16.30890142 -68.76448404 6.66904478 -39.125 2.3125 C-37.32675781 2.04651001 -37.32675781 2.04651001 -35.4921875 1.77514648 C-23.66616559 0.14661384 -11.92341476 -0.04652724 0 0 Z M-116.38671875 138.390625 C-124.25357536 146.70826268 -127.23236523 154.87043428 -127.125 166.3125 C-126.41671144 175.62574101 -121.52845437 183.34022229 -114.875 189.6875 C-106.72210707 196.37774769 -99.24196883 198.01240842 -88.74609375 197.6953125 C-79.58438026 196.72676026 -71.26571799 192.37337754 -65.40234375 185.20703125 C-63.83272307 182.9663688 -62.44763892 180.70643525 -61.125 178.3125 C-60.61259766 177.39017578 -60.61259766 177.39017578 -60.08984375 176.44921875 C-56.76727065 169.23228091 -56.98834545 160.5661139 -59.00390625 153.0234375 C-63.04908841 142.47659294 -68.951532 136.0704337 -79.125 131.3125 C-79.95 130.9 -80.775 130.4875 -81.625 130.0625 C-94.45457458 126.21362762 -106.58024552 129.38018673 -116.38671875 138.390625 Z M18.75 227.5625 C15.80205527 230.53174984 15.80205527 230.53174984 14.875 234.3125 C14.215 234.3125 13.555 234.3125 12.875 234.3125 C12.96201172 232.66701172 12.96201172 232.66701172 13.05078125 230.98828125 C13.09769688 229.53389686 13.14319511 228.07946626 13.1875 226.625 C13.2503418 225.5431543 13.2503418 225.5431543 13.31445312 224.43945312 C13.33056641 223.73369141 13.34667969 223.02792969 13.36328125 222.30078125 C13.38946533 221.65665283 13.41564941 221.01252441 13.44262695 220.34887695 C12.46420384 216.83875773 10.77224343 215.46882337 7.875 213.3125 C4.63025326 212.59671659 1.46833913 212.63475234 -1.84375 212.68359375 C-2.77924683 212.68118179 -3.71474365 212.67876984 -4.67858887 212.67628479 C-6.65214283 212.67726222 -8.62572455 212.6906311 -10.59912109 212.71557617 C-13.61520787 212.7498886 -16.62836412 212.73622904 -19.64453125 212.71679688 C-21.5651166 212.72369559 -23.48569441 212.7333682 -25.40625 212.74609375 C-26.30533081 212.74113388 -27.20441162 212.73617401 -28.1307373 212.73106384 C-29.39730164 212.75481834 -29.39730164 212.75481834 -30.68945312 212.77905273 C-31.42715942 212.78525131 -32.16486572 212.79144989 -32.92492676 212.7978363 C-36.16185348 213.5550514 -37.77307413 214.98129336 -40.125 217.3125 C-40.87313556 220.39726449 -40.87313556 220.39726449 -40.75318909 223.91674805 C-40.76028347 224.57887897 -40.76737786 225.24100988 -40.77468723 225.92320538 C-40.79228283 228.14080125 -40.77415744 230.35664782 -40.75610352 232.57421875 C-40.76124181 234.16436563 -40.76852242 235.75450682 -40.77778625 237.34463501 C-40.79632019 241.66292483 -40.78334943 245.9805982 -40.76369596 250.29886246 C-40.74732443 254.81602969 -40.75612026 259.33315741 -40.76121521 263.8503418 C-40.76573785 271.43646098 -40.74985583 279.02233374 -40.72192383 286.60839844 C-40.68987109 295.38130696 -40.68988706 304.15377099 -40.7071386 312.92671108 C-40.72299757 321.36295081 -40.71627421 329.79902743 -40.69920158 338.23526001 C-40.69232557 341.82691789 -40.69336915 345.41844525 -40.70074654 349.01010132 C-40.70840281 353.23900145 -40.69630517 357.46739521 -40.66889763 361.69620895 C-40.66200574 363.24902213 -40.66192447 364.80188253 -40.66911316 366.35469437 C-40.67779087 368.47311362 -40.66188382 370.58996403 -40.6396637 372.70825195 C-40.63685678 373.89401321 -40.63404985 375.07977448 -40.63115788 376.3014679 C-40.01920377 379.94186064 -39.0223675 381.09479816 -36.125 383.3125 C-32.29816531 384.58811156 -28.68343817 384.47492139 -24.6953125 384.48046875 C-23.45429276 384.48546135 -23.45429276 384.48546135 -22.1882019 384.49055481 C-20.43813635 384.49561614 -18.68806115 384.49796338 -16.93798828 384.49780273 C-14.26708978 384.49998603 -11.59660651 384.51814115 -8.92578125 384.53710938 C-7.22395974 384.54004414 -5.52213628 384.54202838 -3.8203125 384.54296875 C-2.62633347 384.55374702 -2.62633347 384.55374702 -1.40823364 384.56474304 C3.58345531 384.54428612 7.68906143 384.40027747 11.48495483 380.77484131 C13.51237884 377.1834401 13.2899001 373.69488054 13.25976562 369.67944336 C13.2651384 368.80895355 13.27051117 367.93846375 13.27604675 367.04159546 C13.28582527 365.15207577 13.28876868 363.26251116 13.28569031 361.37296867 C13.28120819 358.37436984 13.29522706 355.37636 13.31408691 352.37782288 C13.35088532 346.00189164 13.36456599 339.62602175 13.375 333.25 C13.38710696 325.88284817 13.40886732 318.51598224 13.45500183 311.14895821 C13.46848836 308.2093723 13.46441472 305.27015542 13.45959473 302.33055115 C13.50274977 287.55725469 14.87782083 273.30967917 25.875 262.3125 C33.58441148 257.49604133 40.86436711 256.5357213 49.875 257.3125 C56.04113178 258.74207804 60.76634244 261.1728623 64.62890625 266.25 C69.69420188 274.6339376 71.02098316 282.82738612 71.03271484 292.4296875 C71.03779556 293.3392218 71.04287628 294.2487561 71.04811096 295.18585205 C71.05879084 297.15613857 71.06742031 299.12643703 71.07423019 301.09674072 C71.08604332 304.21543673 71.10550076 307.33399578 71.12734985 310.45263672 C71.18889723 319.31798762 71.2430612 328.18332248 71.27636719 337.04882812 C71.29730047 342.47525065 71.33258763 347.90141987 71.37712479 353.32769775 C71.39128955 355.3945213 71.40000829 357.46138962 71.40317917 359.52825928 C71.40808265 362.41754735 71.43122456 365.30616122 71.45849609 368.1953125 C71.45548996 369.04845032 71.45248383 369.90158813 71.4493866 370.78057861 C71.51474822 375.43878868 71.851802 378.52987209 74.875 382.3125 C79.18164781 384.92682829 83.83235534 384.60249998 88.71875 384.578125 C89.98881897 384.58099518 89.98881897 384.58099518 91.2845459 384.58392334 C93.06974587 384.58528069 94.85495587 384.58161576 96.64013672 384.57324219 C99.36578638 384.56253619 102.09077698 384.57315266 104.81640625 384.5859375 C106.55468895 384.58461583 108.29297124 384.58205327 110.03125 384.578125 C110.84283569 384.58217346 111.65442139 384.58622192 112.49060059 384.59039307 C117.50995644 384.54899059 121.65301302 384.41353616 125.4851532 380.78999329 C127.53988584 377.12729729 127.28434943 373.52893848 127.24731445 369.43920898 C127.25096512 368.54255524 127.25461578 367.64590149 127.25837708 366.72207642 C127.2664947 363.75072386 127.25284623 360.77991532 127.23828125 357.80859375 C127.23776211 355.72990418 127.2382819 353.65121411 127.23979187 351.57252502 C127.23970205 347.20363072 127.22926482 342.83492052 127.21118164 338.46606445 C127.18870556 332.91900703 127.18791088 327.37222353 127.19469929 321.82513332 C127.19807776 317.52229974 127.19133372 313.21952626 127.18157005 308.91670418 C127.17776812 306.87538024 127.17654859 304.83404955 127.1781559 302.7927227 C127.18175893 275.37920525 126.23819938 246.35282659 106.8125 225.05078125 C98.93489647 217.44831461 88.68058121 212.85615446 77.875 211.3125 C77.14925781 211.20292969 76.42351562 211.09335938 75.67578125 210.98046875 C55.28089847 208.31098148 33.17702545 211.91819428 18.75 227.5625 Z M-118.125 217.3125 C-119.23130086 220.63140257 -119.25638517 223.10315943 -119.26544189 226.59994507 C-119.27115204 227.91786545 -119.27686218 229.23578583 -119.28274536 230.59364319 C-119.28399071 232.05770865 -119.28511581 233.52177421 -119.28613281 234.98583984 C-119.2907612 236.52494933 -119.29578589 238.06405767 -119.30117798 239.60316467 C-119.31430101 243.78707317 -119.32074662 247.97096563 -119.32518864 252.15489149 C-119.3281192 254.76826792 -119.33222396 257.38163997 -119.33669281 259.99501419 C-119.35036679 268.17010776 -119.36003423 276.34519129 -119.3638947 284.5202955 C-119.36837693 293.96036306 -119.38593285 303.40028594 -119.4148953 312.8403095 C-119.43650128 320.13550755 -119.44659838 327.43066486 -119.44793582 334.72589457 C-119.44898452 339.08391481 -119.45490629 343.44179903 -119.47275543 347.79978561 C-119.48921769 351.89886788 -119.49140068 355.99771159 -119.48261642 360.09681511 C-119.48184509 361.60085247 -119.48620154 363.10490255 -119.49607468 364.6089077 C-119.50876921 366.66325237 -119.50293195 368.71674889 -119.49249268 370.77108765 C-119.49395924 371.92035421 -119.4954258 373.06962078 -119.4969368 374.25371361 C-119.0787613 377.69276439 -118.20523009 379.56378055 -116.125 382.3125 C-111.49701211 384.55898923 -106.89262334 384.60573826 -101.83984375 384.578125 C-100.6717794 384.58099518 -100.6717794 384.58099518 -99.4801178 384.58392334 C-97.84212926 384.58527813 -96.20412973 384.58163127 -94.56616211 384.57324219 C-92.06664847 384.5625178 -89.56785109 384.5731687 -87.06835938 384.5859375 C-85.47135259 384.58461606 -83.87434625 384.582054 -82.27734375 384.578125 C-81.1631028 384.58419769 -81.1631028 384.58419769 -80.02635193 384.59039307 C-75.14632168 384.54650557 -71.49654026 384.0354088 -67.51352692 381.14177513 C-65.45097694 378.42452756 -65.74129927 376.25631098 -65.73059082 372.87319946 C-65.72449972 372.21671209 -65.71840861 371.56022471 -65.71213293 370.88384378 C-65.69545761 368.67971188 -65.70028494 366.47615483 -65.70507812 364.27197266 C-65.69774032 362.69344989 -65.68915494 361.11493249 -65.67941284 359.53642273 C-65.65715593 355.24503187 -65.65426828 350.95383279 -65.65616035 346.66239214 C-65.65627988 343.08133748 -65.64772298 339.50032372 -65.63938284 335.91928041 C-65.6201332 327.47089889 -65.61727039 319.02261619 -65.62402344 310.57421875 C-65.63066361 301.85641857 -65.60780455 293.13904157 -65.57070971 284.42132723 C-65.54002699 276.93927239 -65.52865117 269.45735376 -65.53254652 261.97523725 C-65.53461576 257.50536131 -65.52910836 253.03581451 -65.50465393 248.56599808 C-65.48241312 244.3617005 -65.4842419 240.15809121 -65.50458145 235.95379066 C-65.50799644 234.41105301 -65.50288125 232.86826926 -65.48859787 231.32559395 C-65.47043279 229.21818095 -65.48312876 227.11310982 -65.50354004 225.00576782 C-65.50282753 223.82700388 -65.50211502 222.64823994 -65.50138092 221.43375587 C-66.31021061 217.38550829 -67.97343402 215.88704192 -71.125 213.3125 C-73.26102446 212.58336337 -73.26102446 212.58336337 -75.46875 212.68139648 C-76.29310547 212.66886337 -77.11746094 212.65633026 -77.96679688 212.64341736 C-79.28260742 212.66330467 -79.28260742 212.66330467 -80.625 212.68359375 C-81.53830078 212.68118179 -82.45160156 212.67876984 -83.39257812 212.67628479 C-85.31905469 212.6772621 -87.24555973 212.69062807 -89.171875 212.71557617 C-92.11555674 212.74988992 -95.05623589 212.73622847 -98 212.71679688 C-99.87501274 212.72369561 -101.75001775 212.73336823 -103.625 212.74609375 C-104.50220703 212.74113388 -105.37941406 212.73617401 -106.28320312 212.73106384 C-111.45461779 212.83040964 -114.45295609 213.29847878 -118.125 217.3125 Z " fill="#000000" transform="translate(256.125,-0.3125)"/>
</svg>
